<svg width="22" height="22" viewBox="0 0 22 22" fill="none" xmlns="http://www.w3.org/2000/svg">
<g id="Group 84">
<g id="Group 81">
<path id="Vector" fill-rule="evenodd" clip-rule="evenodd" d="M10.5265 2.60221C10.5265 1.32321 9.48967 0.286377 8.21067 0.286377H2.31583C1.03683 0.286377 0 1.32321 0 2.60221V8.57277C0 9.85177 1.03683 10.8886 2.31583 10.8886H8.21067C9.48967 10.8886 10.5265 11.9254 10.5265 13.2044V19.0235C10.5265 20.3025 11.5634 21.3394 12.8423 21.3394H18.7372C20.0161 21.3394 21.053 20.3025 21.053 19.0235V13.0529C21.053 11.7739 20.0161 10.7371 18.7372 10.7371H12.8423C11.5634 10.7371 10.5265 9.70031 10.5265 8.42131V2.60221Z" fill="#20ADE5"/>
</g>
</g>
</svg>
